<svg xmlns="http://www.w3.org/2000/svg" viewBox="0 0 32 32">
  <rect width="32" height="32" rx="6" fill="#0a0c10"/>
  <g transform="translate(4,3) scale(0.75)">
    <path d="M8 28c0 0 0-4 2-6s4-3 4-6c0-2-1-3-1-5s1-4 3-5c2-1 4-1 5 0s2 3 2 5c0 1 0 2-1 3 1 0 3 1 4 2s2 3 2 5c0 3-2 5-4 6s-4 1-6 1H8z" fill="#c8f560"/>
    <path d="M12 16c0 0 1-2 3-2s3 1 3 3-1 3-2 4" stroke="#0a0c10" stroke-width="1.5" fill="none" stroke-linecap="round"/>
    <path d="M18 11c0 0 1-1 2-1s2 1 2 2" stroke="#0a0c10" stroke-width="1.5" fill="none" stroke-linecap="round"/>
  </g>
</svg>
